<?xml version="1.0" standalone="no"?>
<!DOCTYPE svg PUBLIC "-//W3C//DTD SVG 20010904//EN"
 "http://www.w3.org/TR/2001/REC-SVG-20010904/DTD/svg10.dtd">
<svg version="1.0" xmlns="http://www.w3.org/2000/svg"
 width="400.000000pt" height="400.000000pt" viewBox="0 0 400.000000 400.000000"
 preserveAspectRatio="xMidYMid meet">
<metadata>
Created by potrace 1.11, written by Peter Selinger 2001-2013
</metadata>
<g transform="translate(0.000000,400.000000) scale(0.100000,-0.100000)"
fill="#000000" stroke="none">
<path d="M2065 3990 c-155 -30 -262 -51 -335 -64 -46 -9 -215 -62 -375 -117
-397 -139 -390 -136 -443 -181 -25 -23 -74 -53 -108 -69 -43 -19 -92 -55 -158
-116 -52 -49 -108 -95 -123 -103 -37 -18 -120 -86 -158 -129 -108 -122 -157
-233 -180 -411 -4 -30 -36 -140 -70 -245 -86 -262 -90 -285 -90 -580 0 -258 6
-317 47 -460 33 -116 183 -487 217 -536 17 -26 31 -50 31 -53 0 -13 72 -110
133 -179 35 -40 87 -107 117 -150 67 -98 92 -120 242 -208 123 -71 139 -81
253 -155 89 -57 168 -85 280 -100 55 -8 158 -32 228 -54 152 -47 276 -60 588
-60 168 0 204 3 250 19 112 40 175 60 222 70 26 6 84 34 129 62 44 28 95 59
112 69 17 10 60 34 96 55 109 62 229 145 320 221 106 89 372 364 395 407 9 18
32 54 51 82 42 61 71 148 80 238 6 62 11 74 49 118 23 27 55 73 71 102 28 50
29 57 30 192 0 77 6 196 13 265 14 135 9 265 -15 395 -24 135 -62 237 -147
404 -74 145 -95 177 -147 226 -43 41 -78 100 -100 170 -38 118 -113 218 -182
241 -62 20 -102 68 -167 198 -69 140 -76 145 -266 213 -27 10 -74 37 -103 61
-94 77 -116 84 -285 94 -87 5 -169 15 -192 23 -37 14 -153 37 -235 48 -19 2
-53 1 -75 -3z m134 -61 c64 -5 133 -17 153 -24 20 -8 92 -19 160 -25 172 -14
180 -16 300 -103 41 -28 110 -67 153 -86 125 -54 147 -72 209 -166 32 -48 55
-89 52 -92 -17 -18 -124 43 -238 136 -46 36 -97 67 -132 80 -31 11 -102 48
-157 81 -146 91 -182 103 -314 102 -65 0 -140 -7 -185 -17 -140 -31 -287 -21
-530 39 -55 13 -55 13 -27 24 16 7 58 12 95 12 63 1 149 16 217 38 41 14 107
14 244 1z m-495 -118 c16 -6 72 -21 125 -33 107 -24 294 -29 345 -9 45 18 240
24 300 10 77 -18 106 -30 153 -66 24 -18 43 -30 43 -27 0 3 8 -3 18 -14 19
-23 91 -70 181 -121 64 -36 75 -51 39 -51 -40 0 -121 -29 -145 -52 -13 -13
-23 -33 -23 -50 0 -32 31 -68 59 -68 10 0 34 -3 52 -6 24 -4 30 -3 20 4 -14
10 -6 13 68 27 13 2 39 9 57 15 19 6 38 9 43 6 5 -4 12 -3 15 2 15 24 145 -16
221 -68 24 -17 47 -30 52 -30 10 0 43 -37 43 -48 0 -5 9 -17 19 -29 41 -44 58
-104 65 -228 9 -150 26 -204 85 -259 142 -133 143 -136 149 -311 4 -121 2
-149 -16 -207 -17 -55 -20 -82 -15 -157 4 -65 3 -91 -6 -91 -40 0 -62 -82 -39
-149 7 -20 11 -42 10 -48 -3 -14 -2 -15 58 -81 44 -48 48 -72 26 -136 -10 -28
-38 -61 -98 -115 -47 -42 -98 -83 -114 -91 -32 -16 -93 -58 -137 -93 -78 -62
-197 -264 -220 -375 l-11 -53 -51 6 c-35 5 -61 2 -87 -9 -21 -9 -38 -13 -38
-10 0 4 -6 1 -13 -5 -8 -6 -18 -7 -22 -3 -5 4 -5 2 -2 -4 4 -7 -11 -13 -45
-17 -28 -4 -59 -14 -69 -23 -20 -18 -20 -51 0 -64 17 -10 -24 -40 -56 -40 -12
0 -32 -4 -45 -9 -13 -5 -41 -14 -63 -21 -22 -7 -55 -26 -72 -43 -25 -24 -42
-31 -73 -31 -23 0 -34 -3 -27 -8 7 -5 2 -8 -15 -8 -15 0 -30 -5 -33 -11 -8
-11 -55 -33 -67 -31 -5 1 -8 -5 -8 -14 0 -10 -5 -14 -15 -10 -10 4 -15 1 -13
-9 2 -7 -1 -15 -7 -16 -22 -6 -33 -26 -30 -57 3 -30 -1 -35 -46 -57 -88 -45
-170 -32 -289 45 -31 20 -106 51 -140 56 -14 3 -68 9 -121 14 -166 15 -201 31
-274 124 -23 30 -49 61 -58 70 -9 9 -24 29 -33 45 -26 43 -46 52 -73 30 -30
-25 -42 -120 -18 -147 15 -16 15 -18 -2 -19 -35 -3 -127 82 -156 142 -29 63
-29 88 0 93 34 5 75 24 70 32 -3 4 -58 24 -122 45 -181 57 -199 64 -234 101
-30 31 -32 37 -22 64 10 26 9 30 -5 30 -12 0 -9 4 8 13 14 7 24 21 24 30 -1 9
2 14 7 11 17 -10 9 36 -10 55 -11 11 -16 22 -13 26 4 3 -6 4 -21 1 -15 -2 -27
0 -27 5 0 6 -5 7 -10 4 -6 -4 -7 -11 -4 -17 4 -6 2 -8 -3 -5 -11 7 -83 -58
-83 -74 0 -5 -7 -9 -15 -9 -8 0 -15 7 -15 15 0 8 -4 15 -8 15 -12 0 -34 85
-43 165 -12 96 -12 114 -5 164 5 37 2 52 -24 98 -17 30 -28 58 -25 63 4 6 1
10 -5 10 -7 0 -9 7 -6 17 4 9 3 19 -1 22 -4 3 -16 20 -25 36 -19 34 -49 43
-70 21 -13 -12 -19 -13 -41 -1 -14 7 -29 10 -33 7 -4 -4 -4 -1 0 5 4 8 -4 24
-18 38 -14 14 -33 39 -41 55 -9 17 -21 30 -28 30 -23 0 -47 90 -47 172 0 84
10 121 71 265 31 72 41 108 45 173 4 55 2 86 -6 95 -7 8 -10 22 -6 30 3 8 1
15 -5 15 -10 0 -11 14 -10 172 1 214 120 428 281 506 36 17 119 43 185 58 164
36 202 57 310 172 224 239 280 285 395 323 34 12 238 4 274 -10z m-544 -117
c0 -8 -81 -95 -172 -186 -45 -45 -91 -78 -140 -102 -74 -37 -167 -61 -181 -47
-11 11 170 151 197 151 3 0 6 -7 6 -15 0 -25 15 -17 35 21 27 51 103 116 177
152 66 32 78 36 78 26z m1837 -240 c3 -10 -119 -44 -186 -51 -33 -4 -42 -2
-39 8 16 49 211 86 225 43z m726 -671 c44 -85 68 -143 59 -143 -23 2 -150 208
-166 270 -12 43 66 -49 107 -127z m-3499 -208 c29 -109 16 -193 -58 -394 -51
-138 -56 -185 -30 -284 18 -72 34 -103 79 -162 44 -58 62 -113 70 -209 7 -90
9 -96 75 -187 51 -70 70 -125 94 -264 26 -151 67 -209 208 -287 131 -73 195
-144 288 -323 38 -71 46 -95 35 -95 -24 0 -67 25 -95 55 -14 14 -62 51 -107
81 -73 49 -203 174 -203 195 0 5 14 9 30 9 45 0 36 19 -12 27 -34 5 -56 19
-106 67 -57 54 -72 78 -157 251 -103 210 -151 327 -188 455 -31 107 -57 257
-57 329 0 30 -5 81 -12 114 -10 49 -10 71 4 138 9 43 26 92 38 109 21 29 16
42 -8 18 -16 -16 -17 48 -1 89 5 15 21 84 35 153 42 211 50 224 78 115z m3541
5 c3 -5 1 -10 -4 -10 -6 0 -11 5 -11 10 0 6 2 10 4 10 3 0 8 -4 11 -10z m33
-47 c-1 -8 4 -24 23 -71 12 -32 11 -129 -2 -137 -6 -4 -9 -12 -6 -19 2 -6 -7
-31 -19 -56 l-23 -45 0 52 c-1 28 2 54 7 56 4 3 7 52 6 109 -1 97 1 118 12
118 2 0 3 -3 2 -7z m117 -218 c8 -62 0 -134 -21 -184 -18 -43 -9 -54 16 -21
20 25 20 25 20 -112 0 -178 -7 -198 -51 -136 -21 30 -23 43 -25 197 -2 142 0
174 17 220 10 31 19 63 19 73 0 10 4 18 9 18 5 0 13 -25 16 -55z m-122 -175
c-3 -12 -8 -19 -11 -16 -5 6 5 36 12 36 2 0 2 -9 -1 -20z m-6 -120 c-4 -51 -3
-90 2 -90 5 0 7 -10 3 -22 -3 -13 -1 -19 5 -15 6 4 10 -6 11 -23 0 -17 -1 -30
-3 -30 -8 0 -45 88 -45 108 0 31 23 162 29 162 2 0 1 -40 -2 -90z m-113 -116
c9 -8 16 -26 16 -38 0 -13 14 -48 30 -79 37 -70 39 -97 6 -97 -49 0 -112 169
-81 219 8 14 11 14 29 -5z m166 -92 c0 -10 6 -26 14 -37 7 -11 16 -31 20 -45
8 -29 -38 54 -49 89 -5 16 -4 21 4 17 6 -4 11 -15 11 -24z m58 -197 c-11 -74
-64 -186 -84 -178 -18 7 -18 9 8 46 44 62 58 100 58 160 0 50 2 56 14 45 11
-11 12 -27 4 -73z m-3443 -15 c17 -41 35 -84 41 -95 26 -47 -21 -63 -55 -18
-26 32 -65 157 -57 179 13 34 41 8 71 -66z m-118 -82 c-3 -8 -6 -5 -6 6 -1 11
2 17 5 13 3 -3 4 -12 1 -19z m3473 -100 c0 -5 -4 -6 -10 -3 -5 3 -10 0 -10 -8
0 -8 -7 -17 -15 -21 -8 -3 -15 -12 -15 -21 0 -8 -7 -15 -16 -15 -8 0 -12 -4
-9 -10 3 -5 -1 -10 -9 -10 -9 0 -16 -3 -16 -7 -1 -12 -50 -66 -55 -61 -6 6 43
72 90 123 19 22 35 42 35 47 0 4 7 5 15 2 8 -4 15 -10 15 -16z m-3393 -48 c4
0 22 -21 40 -48 23 -34 35 -67 44 -124 6 -42 9 -86 6 -98 -3 -11 -1 -20 4 -20
5 0 9 -13 9 -30 0 -16 -4 -30 -8 -30 -9 0 -37 144 -34 178 1 15 -2 21 -9 16
-7 -4 -9 0 -5 13 3 10 -1 28 -9 39 -8 10 -15 28 -15 40 0 11 -9 29 -21 40 -12
10 -30 33 -41 49 l-20 30 26 -27 c14 -16 29 -28 33 -28z m3334 -163 c-35 -134
-100 -245 -217 -369 l-49 -52 -3 34 c-3 26 5 45 37 89 23 31 57 88 77 126 78
150 156 266 170 253 2 -3 -5 -39 -15 -81z m-97 28 c-4 -8 -10 -15 -15 -15 -4
0 -6 7 -3 15 4 8 10 15 15 15 4 0 6 -7 3 -15z m-43 -64 c-9 -9 -28 -39 -40
-64 -13 -26 -27 -47 -32 -47 -14 0 -12 5 21 53 17 25 30 49 30 54 0 14 22 33
31 27 5 -2 0 -13 -10 -23z m-2868 -37 c10 -10 -12 -55 -44 -92 -17 -19 -34
-45 -39 -58 -6 -15 -18 -24 -31 -24 -18 0 -20 4 -14 28 12 53 45 107 77 129
36 24 42 26 51 17z m2775 -126 c-13 -23 -28 -48 -35 -55 -6 -7 -15 -23 -18
-36 -7 -25 -14 -43 -41 -102 -10 -22 -17 -46 -16 -52 2 -7 -2 -13 -8 -13 -6 0
-10 -8 -8 -17 2 -11 -3 -18 -12 -18 -8 0 -21 -6 -28 -12 -7 -7 -25 -16 -40
-20 -15 -3 -29 -9 -32 -12 -12 -14 -52 -31 -60 -26 -6 4 -10 1 -10 -4 0 -6 -7
-11 -15 -11 -8 0 -15 -4 -15 -9 0 -5 -7 -12 -16 -15 -8 -3 -12 -2 -9 4 9 15
-2 12 -19 -5 -8 -8 -25 -17 -38 -19 -13 -2 -22 -9 -20 -15 2 -11 -3 -13 -30
-15 -7 -1 -15 -4 -18 -7 -10 -13 -46 -18 -60 -9 -13 8 -12 11 5 24 30 22 96
55 128 62 15 3 27 11 27 16 0 6 7 8 15 4 8 -3 15 -1 15 4 0 5 6 7 14 4 8 -3
30 1 48 9 18 8 50 22 71 31 20 9 37 21 37 27 0 6 4 8 10 4 11 -7 40 35 44 67
5 34 17 68 25 68 7 0 44 67 45 82 1 8 25 45 42 62 5 6 13 19 17 29 3 9 11 17
17 17 6 0 0 -19 -12 -42z m-2978 -36 c0 -7 -4 -10 -10 -7 -5 3 -10 16 -10 28
0 18 2 19 10 7 5 -8 10 -21 10 -28z m125 -132 c3 -6 -1 -7 -9 -4 -18 7 -21 14
-7 14 6 0 13 -4 16 -10z m60 -20 c17 -8 36 -19 44 -24 7 -6 19 -11 27 -12 16
-3 104 -73 104 -84 0 -4 11 -18 24 -31 13 -13 36 -46 51 -74 16 -27 31 -52 34
-55 6 -5 10 -14 43 -87 7 -16 25 -50 41 -76 15 -27 25 -53 22 -58 -4 -5 -1 -9
5 -9 6 0 18 -7 26 -15 9 -8 13 -15 9 -15 -13 0 -62 30 -76 46 -12 16 -12 17 1
9 8 -4 2 6 -14 23 -17 18 -26 32 -20 32 5 0 4 4 -1 8 -12 8 -37 59 -42 85 -1
10 -12 27 -23 39 -11 12 -20 32 -20 45 0 16 -4 22 -12 17 -7 -5 -9 -2 -5 9 3
9 0 18 -9 21 -8 3 -14 11 -14 19 0 7 -10 23 -22 35 -13 11 -27 26 -33 32 -5 6
-22 20 -38 31 -15 11 -24 25 -21 31 4 7 2 8 -4 4 -16 -10 -54 12 -46 26 4 7 3
8 -4 4 -13 -8 -72 23 -72 37 0 4 3 7 8 5 4 -2 21 -10 37 -18z m2322 -46 c3 -8
-4 -25 -16 -38 -33 -35 -164 -59 -201 -36 -25 16 16 50 60 50 20 0 40 3 44 8
10 10 67 30 89 31 10 1 20 -6 24 -15z m-1738 -171 c18 -38 40 -76 48 -85 17
-20 11 -48 -11 -48 -19 0 -73 63 -91 107 -16 37 -19 75 -8 86 17 17 32 2 62
-60z m1976 -2 c-36 -34 -207 -164 -295 -223 -116 -78 -350 -198 -350 -179 0
12 120 124 180 167 77 56 196 122 320 178 58 26 112 51 120 56 20 12 37 13 25
1z m-316 -70 c9 -6 -5 -18 -50 -41 -81 -41 -132 -71 -141 -84 -4 -6 -8 -7 -8
-3 0 5 -7 1 -16 -7 -8 -9 -21 -16 -27 -16 -7 0 -6 4 3 10 8 5 11 10 5 10 -10
1 13 14 130 75 32 16 60 38 63 47 5 20 19 23 41 9z m-505 -49 c8 -13 -77 -77
-128 -96 -19 -7 -19 -6 -1 14 10 11 28 20 39 20 16 0 18 2 7 9 -11 7 -10 11 7
20 11 6 28 11 36 11 9 0 15 3 15 8 -4 21 14 31 25 14z m-1079 -42 c-3 -5 -12
-10 -18 -10 -7 0 -6 4 3 10 19 12 23 12 15 0z m1265 -104 c0 -3 -4 -8 -10 -11
-5 -3 -10 -1 -10 4 0 6 5 11 10 11 6 0 10 -2 10 -4z m-30 -35 c0 -6 -4 -13
-10 -16 -5 -3 -10 1 -10 9 0 9 5 16 10 16 6 0 10 -4 10 -9z m-744 -13 c32 -6
61 -15 64 -19 3 -3 14 -9 25 -12 16 -4 15 -5 -5 -6 -15 0 -31 4 -37 10 -18 18
-198 24 -268 8 -33 -7 -68 -11 -79 -10 -10 1 -16 -2 -12 -7 3 -6 -12 -10 -35
-10 -22 -1 -52 -8 -65 -17 -19 -12 -24 -12 -24 -2 0 18 85 48 142 51 14 0 24
5 21 10 -3 4 3 5 13 2 11 -3 33 -2 49 3 43 13 142 13 211 -1z m714 -14 c0 -3
-11 -18 -25 -32 -14 -15 -24 -30 -23 -33 4 -8 -65 -69 -78 -69 -6 0 -17 -7
-24 -15 -7 -8 -21 -15 -32 -15 -10 0 -16 -4 -13 -10 4 -6 -8 -10 -30 -10 -23
0 -34 4 -30 10 4 6 14 10 23 9 17 -2 46 9 87 34 28 16 66 54 99 100 24 33 46
48 46 31z m-683 -85 c40 -10 107 -35 150 -55 71 -33 76 -37 53 -44 -14 -5 -68
-8 -121 -9 -80 -1 -115 5 -220 34 -68 19 -153 39 -188 44 -35 6 -65 12 -68 14
-4 5 107 35 152 41 50 6 166 -5 242 -25z m163 21 c8 -5 11 -10 5 -10 -5 0 -17
5 -25 10 -8 5 -10 10 -5 10 6 0 17 -5 25 -10z m140 -90 c0 -5 -4 -10 -9 -10
-6 0 -13 5 -16 10 -3 6 1 10 9 10 9 0 16 -4 16 -10z m43 -7 c-7 -2 -19 -2 -25
0 -7 3 -2 5 12 5 14 0 19 -2 13 -5z m34 -19 c-3 -3 -12 -4 -19 -1 -8 3 -5 6 6
6 11 1 17 -2 13 -5z"/>
<path d="M1950 3875 c-14 -8 -44 -14 -68 -15 -26 0 -41 -4 -37 -10 10 -16 56
-12 123 11 34 11 62 23 62 25 0 10 -57 2 -80 -11z"/>
<path d="M2690 3806 c0 -13 97 -96 113 -96 14 0 10 8 -16 34 -32 31 -97 73
-97 62z"/>
<path d="M2985 3638 c11 -6 30 -20 42 -31 32 -29 40 -13 10 17 -15 14 -36 26
-49 26 -22 -1 -22 -1 -3 -12z"/>
<path d="M1670 3709 c-48 -19 -132 -119 -146 -173 -12 -49 70 -80 115 -43 25
21 125 162 128 181 7 41 -39 58 -97 35z m70 -28 c0 -4 -18 -20 -39 -34 -22
-15 -54 -47 -71 -72 -27 -39 -56 -65 -74 -65 -23 0 18 92 56 127 45 42 128 71
128 44z"/>
<path d="M2368 3608 c-7 -13 -11 -31 -9 -40 2 -16 -9 -18 -121 -18 -131 0
-148 -5 -148 -46 0 -48 104 -94 214 -94 55 0 83 -6 124 -25 64 -30 93 -31 115
-7 28 31 20 65 -32 133 -96 125 -119 140 -143 97z m103 -80 c22 -31 44 -69 49
-83 9 -24 8 -25 -23 -25 -38 0 -74 33 -100 92 -20 43 -21 70 -5 86 15 15 30 3
79 -70z m-169 -8 c49 0 73 -19 51 -41 -17 -17 -119 -22 -170 -10 -62 16 -78
28 -61 49 10 11 26 13 72 8 32 -3 81 -6 108 -6z"/>
<path d="M1061 3357 c-14 -6 -46 -48 -73 -92 -54 -90 -63 -148 -30 -178 48
-44 100 -6 128 92 9 31 25 70 35 87 24 39 24 66 1 87 -22 20 -29 21 -61 4z
m44 -44 c-3 -16 -24 -51 -46 -79 -21 -28 -39 -57 -39 -65 0 -18 -20 -39 -36
-39 -25 0 -23 33 7 93 36 73 75 117 102 117 16 0 18 -5 12 -27z"/>
<path d="M1708 3303 c6 -2 18 -2 25 0 6 3 1 5 -13 5 -14 0 -19 -2 -12 -5z"/>
<path d="M1768 3303 c7 -3 16 -2 19 1 4 3 -2 6 -13 5 -11 0 -14 -3 -6 -6z"/>
<path d="M2920 3308 c3 -3 21 -13 40 -23 27 -13 32 -14 20 -2 -8 8 -26 18 -40
22 -14 4 -23 5 -20 3z"/>
<path d="M1615 3284 l-30 -14 35 6 c19 3 39 10 45 15 14 14 -16 9 -50 -7z"/>
<path d="M3165 3280 c-10 -11 -20 -18 -24 -16 -3 2 -7 -9 -8 -25 -1 -16 2 -27
7 -24 5 3 14 -5 21 -17 7 -12 18 -29 26 -36 7 -7 13 -20 13 -28 0 -8 5 -14 10
-14 6 0 10 -9 10 -19 0 -28 37 -86 66 -105 13 -9 24 -12 24 -7 0 6 6 8 13 6
36 -14 58 37 44 100 -18 77 -74 174 -91 158 -3 -4 -6 1 -6 10 0 11 -8 17 -25
17 -14 0 -25 5 -25 10 0 17 -36 11 -55 -10z m77 -62 c41 -46 52 -72 46 -109
-3 -22 -5 -22 -22 11 -10 19 -36 54 -58 77 -37 38 -43 63 -16 63 7 0 29 -19
50 -42z"/>
<path d="M1335 3276 c-14 -10 -20 -31 -24 -83 -7 -75 -29 -114 -87 -147 -16
-10 -20 -14 -9 -10 11 3 25 7 32 7 6 0 16 11 22 24 15 34 26 29 45 -22 11 -27
22 -42 28 -39 7 4 8 2 4 -5 -14 -22 50 -66 75 -50 20 13 35 11 21 -3 -13 -13
-17 -92 -4 -85 4 3 8 -10 9 -29 1 -31 -1 -34 -36 -44 -47 -12 -111 -58 -144
-102 -13 -18 -43 -69 -66 -113 -22 -44 -44 -85 -48 -90 -5 -6 -19 -32 -31 -57
-19 -37 -28 -46 -45 -42 -11 2 -29 -4 -38 -12 -10 -9 -23 -13 -29 -9 -6 3 -9
1 -8 -7 2 -7 -3 -12 -10 -10 -8 1 -11 -2 -7 -8 8 -13 -22 -44 -86 -89 -52 -37
-54 -52 -12 -108 29 -40 53 -42 133 -8 73 31 84 31 98 3 15 -32 34 -132 27
-149 -3 -8 -1 -53 4 -101 9 -90 42 -178 66 -178 11 0 10 6 -2 31 -13 26 -14
51 -7 153 11 153 9 215 -7 263 -7 21 -14 54 -15 73 -1 40 34 133 47 124 5 -3
9 3 9 13 0 10 10 31 23 46 66 84 87 108 87 101 0 -4 14 13 30 40 17 26 35 44
40 41 5 -3 7 0 5 7 -8 19 72 96 125 122 35 16 64 21 125 21 165 -1 218 -16
103 -29 -104 -12 -142 -16 -158 -17 -38 -1 -70 -12 -91 -30 -13 -11 -29 -17
-36 -15 -7 3 -15 1 -18 -5 -4 -5 -3 -9 2 -8 20 3 23 -2 9 -16 -8 -8 -18 -15
-23 -15 -4 0 -21 -20 -37 -44 -16 -23 -42 -51 -58 -62 -15 -10 -31 -26 -33
-36 -3 -9 -12 -19 -20 -22 -8 -3 -15 -11 -15 -17 0 -6 -10 -20 -22 -30 -11
-11 -19 -22 -15 -25 3 -3 -3 -21 -14 -40 -10 -19 -19 -44 -19 -57 0 -12 -1
-50 -3 -85 -1 -35 1 -66 5 -68 4 -3 8 -11 8 -17 0 -7 -4 -6 -10 3 -5 8 -10 10
-10 4 0 -6 3 -14 7 -17 3 -4 7 -52 9 -108 1 -56 -2 -96 -6 -89 -12 19 -11
-131 2 -169 11 -35 51 -76 122 -124 74 -51 96 -77 136 -161 46 -97 85 -136
136 -136 30 0 34 -3 34 -27 0 -16 7 -41 16 -58 9 -16 27 -51 40 -76 28 -55 61
-79 108 -79 28 0 38 6 49 26 14 26 11 30 -55 113 l-69 86 41 3 c38 3 78 -8
195 -52 53 -20 148 -20 187 0 17 9 52 36 78 60 35 33 59 46 96 53 68 14 124
35 175 67 88 55 121 110 139 229 17 122 28 155 68 215 50 75 62 105 62 155 0
25 5 45 13 48 7 3 5 6 -5 6 -18 1 -25 25 -10 34 4 2 1 2 -6 0 -7 -1 -23 19
-37 50 -14 28 -25 48 -25 42 0 -5 -8 6 -17 25 -9 19 -23 48 -31 64 -9 19 -10
26 -2 21 8 -5 8 0 -1 16 -7 13 -12 28 -11 33 2 5 -1 12 -6 15 -6 3 -13 20 -16
36 -13 69 -30 125 -38 125 -4 0 -8 6 -8 13 0 6 -16 26 -36 42 -20 17 -51 43
-68 58 -17 16 -47 36 -66 45 -67 32 -90 57 -90 96 0 20 4 36 8 36 4 0 9 15 10
33 1 17 5 41 8 52 4 16 3 17 -5 5 -6 -9 -11 -10 -11 -3 0 18 -31 45 -46 39 -8
-3 -14 0 -14 7 -1 7 -9 1 -20 -11 -11 -13 -28 -25 -37 -26 -10 -2 -17 -7 -16
-12 7 -38 -86 -63 -164 -45 -71 17 -76 22 -80 88 -2 32 -5 64 -5 71 -1 6 -7
12 -15 12 -7 0 -13 5 -13 10 0 22 -77 -30 -95 -64 -11 -20 -25 -34 -32 -32 -7
3 -10 -1 -7 -9 3 -7 -5 -20 -18 -29 -25 -17 -187 -57 -189 -47 -4 23 7 64 33
119 36 76 33 128 -7 138 -14 3 -22 10 -19 15 3 5 -3 6 -13 2 -29 -11 -87 -72
-88 -93 -1 -11 -9 -28 -18 -38 -9 -10 -17 -24 -17 -30 0 -7 -8 -12 -17 -12
-11 0 -14 3 -7 8 14 9 12 83 -5 141 -7 24 -11 57 -10 75 3 39 -26 96 -49 96
-10 0 -27 -6 -37 -14z m45 -28 c5 -13 14 -52 19 -88 6 -36 13 -80 17 -97 5
-29 4 -33 -15 -33 -41 0 -86 141 -67 214 8 32 33 34 46 4z m176 -240 c-26 -56
-51 -86 -63 -74 -3 3 -1 6 5 6 6 0 9 7 6 15 -4 9 0 15 9 15 11 0 13 6 9 22 -3
14 -2 19 6 14 7 -4 12 -2 12 3 0 20 3 26 18 37 9 7 12 16 7 25 -6 11 -5 11 4
3 9 -9 6 -24 -13 -66z m357 -14 c3 -4 0 -16 -8 -28 -7 -11 -16 -41 -20 -66
-15 -95 -54 -152 -68 -100 -6 23 18 121 39 161 16 32 43 47 57 33z m377 -95
c0 -32 -113 -139 -147 -139 -25 0 17 58 75 106 55 45 72 53 72 33z m-212 -137
c3 -9 -3 -11 -21 -7 -14 4 -35 1 -47 -5 -27 -15 -41 -3 -17 15 22 16 79 14 85
-3z m-178 -27 c0 -7 -30 -13 -34 -7 -3 4 4 9 15 9 10 1 19 0 19 -2z m47 -1
c-3 -3 -12 -4 -19 -1 -8 3 -5 6 6 6 11 1 17 -2 13 -5z m345 -10 c15 -3 30 -10
33 -15 4 -5 -4 -5 -19 1 -14 5 -41 10 -60 12 -19 1 -33 5 -30 9 4 7 17 6 76
-7z m-146 -34 c39 -10 106 -26 149 -35 122 -25 185 -53 230 -99 36 -37 44 -56
73 -161 26 -95 46 -143 97 -232 72 -125 78 -155 42 -215 -12 -20 -35 -58 -50
-83 -21 -34 -34 -77 -48 -157 -35 -199 -61 -231 -234 -293 -105 -37 -145 -57
-175 -90 -73 -79 -142 -86 -295 -30 -84 31 -119 38 -217 45 -149 9 -174 26
-222 152 -11 29 -34 62 -64 88 -26 23 -65 59 -88 79 -49 44 -60 63 -74 127 -9
39 -8 63 6 124 14 66 15 87 4 171 -16 120 -11 179 23 253 28 61 103 142 182
196 44 31 61 58 28 46 -13 -5 -11 0 6 18 30 32 72 44 181 52 82 6 141 18 245
48 69 20 118 19 201 -4z m-1071 -350 c10 -16 -21 -75 -55 -103 -42 -36 -101
-60 -113 -48 -6 6 18 37 68 85 78 76 89 84 100 66z m661 -1100 c8 0 12 -4 9
-10 -3 -5 0 -10 8 -10 20 0 46 -42 44 -70 -1 -21 -2 -21 -24 7 -13 15 -27 28
-32 28 -6 0 -16 6 -23 13 -11 11 -9 12 7 6 18 -7 18 -6 6 9 -7 9 -17 14 -22
11 -5 -3 -7 5 -5 18 6 33 8 35 13 16 2 -10 11 -18 19 -18z"/>
<path d="M2300 2617 c0 -20 26 -39 47 -35 14 3 12 8 -15 26 -24 18 -32 20 -32
9z"/>
<path d="M1835 2594 c-33 -8 -89 -13 -125 -13 -97 2 -95 2 -152 -44 -29 -24
-62 -49 -73 -55 -19 -11 -18 -11 8 -12 17 0 46 15 78 40 29 23 62 40 76 40 25
0 26 -1 8 -20 -10 -11 -40 -34 -66 -51 -112 -71 -209 -311 -209 -515 0 -57 -5
-65 -26 -37 -19 27 -28 8 -10 -24 8 -15 36 -75 60 -132 57 -131 76 -158 143
-205 49 -34 70 -63 87 -118 9 -28 27 -21 20 7 -3 14 -2 25 3 25 5 0 58 -18
117 -40 161 -61 229 -63 429 -9 139 38 226 114 326 286 37 64 76 170 116 316
11 39 11 47 -1 47 -7 0 -18 18 -24 43 -39 149 -71 213 -144 289 -48 49 -56 63
-62 107 -7 53 -24 61 -24 10 0 -34 -3 -35 -38 -11 -107 74 -363 112 -517 76z
m315 -73 c106 -31 180 -71 251 -139 147 -138 192 -321 129 -525 -41 -132 -150
-266 -269 -330 -71 -39 -190 -67 -284 -67 -72 0 -92 5 -196 46 -157 63 -212
102 -263 185 -26 42 -78 181 -84 224 -12 93 54 323 125 433 64 98 164 163 306
196 41 10 222 -5 285 -23z"/>
<path d="M1360 2280 c0 -14 -10 -69 -22 -122 -12 -54 -19 -101 -15 -105 13
-12 30 15 32 49 1 18 9 51 19 73 12 25 16 51 12 74 -7 43 -26 66 -26 31z"/>
<path d="M2519 1611 c-30 -31 -36 -46 -19 -56 6 -3 10 -2 10 3 0 5 11 26 25
46 30 44 24 46 -16 7z"/>
<path d="M2425 1489 c-4 -6 -5 -13 -2 -16 7 -7 27 6 27 18 0 12 -17 12 -25 -2z"/>
<path d="M1720 1400 c-12 -7 -8 -10 15 -10 17 0 41 -3 55 -6 24 -5 24 -5 6 10
-22 18 -54 20 -76 6z"/>
<path d="M1935 3280 c11 -5 38 -8 60 -8 l40 0 -40 9 c-22 4 -49 8 -60 8 l-20
0 20 -9z"/>
<path d="M1530 3250 c-25 -10 -40 -19 -34 -19 14 -1 84 28 84 34 0 6 3 7 -50
-15z"/>
<path d="M2123 3263 c9 -2 25 -2 35 0 9 3 1 5 -18 5 -19 0 -27 -2 -17 -5z"/>
<path d="M2188 3263 c7 -3 16 -2 19 1 4 3 -2 6 -13 5 -11 0 -14 -3 -6 -6z"/>
<path d="M2250 3260 c8 -5 28 -10 44 -10 39 0 30 6 -19 13 -27 4 -35 3 -25 -3z"/>
<path d="M2432 3254 c8 -7 167 -8 175 0 4 3 -36 6 -87 6 -51 0 -91 -3 -88 -6z"/>
<path d="M3030 3258 c0 -8 82 -89 86 -85 2 2 -17 23 -41 47 -25 24 -45 42 -45
38z"/>
<path d="M2620 3239 c0 -5 5 -7 10 -4 6 3 10 8 10 11 0 2 -4 4 -10 4 -5 0 -10
-5 -10 -11z"/>
<path d="M1458 3223 c7 -3 16 -2 19 1 4 3 -2 6 -13 5 -11 0 -14 -3 -6 -6z"/>
<path d="M2705 3190 c10 -11 20 -20 23 -20 3 0 -3 9 -13 20 -10 11 -20 20 -23
20 -3 0 3 -9 13 -20z"/>
<path d="M3121 3160 c-1 -3 8 -27 19 -55 10 -27 19 -43 19 -35 0 14 -36 101
-38 90z"/>
<path d="M2767 3129 c12 -12 24 -21 27 -18 2 2 -8 13 -22 23 l-27 19 22 -24z"/>
<path d="M2863 3113 c15 -2 39 -2 55 0 15 2 2 4 -28 4 -30 0 -43 -2 -27 -4z"/>
<path d="M2494 3102 c3 -5 -6 -19 -20 -31 -19 -16 -25 -30 -23 -54 4 -38 34
-87 55 -87 8 0 14 -7 14 -15 0 -8 5 -15 10 -15 6 0 10 -7 10 -15 0 -9 6 -18
14 -21 8 -3 17 -16 20 -29 8 -31 71 -85 100 -85 30 0 52 26 60 70 4 25 3 31
-4 20 -8 -12 -10 -10 -10 11 0 15 -9 38 -20 52 -11 14 -20 28 -20 32 0 4 -10
18 -22 30 -30 29 -53 58 -55 69 -1 5 -14 15 -30 21 -15 7 -38 22 -50 34 -22
21 -39 28 -29 13z m95 -109 c67 -74 96 -138 70 -154 -22 -14 -26 -12 -61 32
-18 23 -51 62 -74 88 -47 53 -57 74 -41 90 22 22 47 10 106 -56z"/>
<path d="M2980 3103 c14 -3 30 -9 35 -13 13 -10 90 -31 81 -22 -13 12 -101 42
-121 41 -15 -1 -14 -3 5 -6z"/>
<path d="M1160 3005 c-7 -9 -10 -18 -7 -21 3 -3 10 4 17 15 13 25 8 27 -10 6z"/>
<path d="M623 2989 c-79 -31 -122 -93 -94 -138 12 -18 56 -17 103 3 20 9 54
20 76 25 l41 9 -2 -42 c-2 -40 -3 -41 -37 -40 -25 1 -27 0 -8 -3 22 -3 30 -12
38 -41 5 -20 10 -44 10 -53 0 -9 14 -35 30 -57 27 -38 34 -42 73 -42 57 0 66
8 73 65 6 38 4 50 -9 60 -9 6 -17 18 -19 25 -2 8 -9 21 -15 28 -15 16 -17 36
-3 27 6 -3 7 1 4 9 -3 9 -12 16 -20 16 -8 0 -14 5 -14 10 0 6 -12 22 -26 35
-21 19 -24 27 -15 44 18 32 13 50 -19 66 -39 20 -104 18 -167 -6z m167 -18 c0
-19 -25 -31 -68 -31 -13 0 -48 -11 -78 -25 -60 -27 -79 -31 -89 -15 -22 36 87
86 193 89 35 1 42 -2 42 -18z m69 -195 c42 -92 45 -116 16 -116 -36 0 -105
117 -105 178 0 27 4 32 23 32 19 0 30 -16 66 -94z"/>
<path d="M3163 2956 c-23 -13 -45 -21 -49 -18 -4 4 -4 -1 -1 -10 4 -10 3 -18
-2 -18 -9 0 -40 -96 -39 -122 1 -10 5 -18 10 -18 4 0 8 -9 8 -20 0 -11 7 -20
15 -20 8 0 15 -4 15 -10 0 -16 39 -12 71 7 16 10 29 23 29 30 0 7 3 13 8 13 8
0 39 49 59 94 44 97 -25 148 -124 92z m57 -20 c0 -2 -8 -10 -17 -17 -16 -13
-17 -12 -4 4 13 16 21 21 21 13z m-43 -53 c-3 -3 -11 -2 -17 2 -9 6 -9 10 1
16 14 8 27 -7 16 -18z m-24 -33 c-3 -11 -14 -25 -24 -31 -15 -7 -17 -6 -13 6
4 8 10 15 15 15 5 0 8 3 8 8 -3 19 2 33 10 28 5 -3 7 -15 4 -26z"/>
<path d="M1112 2943 c-31 -47 -66 -109 -54 -98 13 12 83 125 77 125 -2 0 -12
-12 -23 -27z"/>
<path d="M2510 2870 c0 -5 5 -10 11 -10 5 0 7 5 4 10 -3 6 -8 10 -11 10 -2 0
-4 -4 -4 -10z"/>
<path d="M1015 2810 c-3 -5 -1 -10 4 -10 6 0 11 5 11 10 0 6 -2 10 -4 10 -3 0
-8 -4 -11 -10z"/>
<path d="M963 2793 c9 -2 23 -2 30 0 6 3 -1 5 -18 5 -16 0 -22 -2 -12 -5z"/>
<path d="M575 2764 l-30 -26 30 20 c17 10 37 22 45 25 13 5 13 6 0 6 -8 1 -28
-11 -45 -25z"/>
<path d="M501 2687 c-13 -21 -12 -21 5 -5 10 10 16 20 13 22 -3 3 -11 -5 -18
-17z"/>
<path d="M400 2650 c-11 -11 -22 -31 -26 -46 -10 -41 3 -169 21 -208 20 -42
15 -64 -32 -130 -19 -26 -30 -45 -24 -42 6 4 25 27 41 52 17 24 36 42 41 38
20 -12 56 6 68 33 21 45 22 70 5 112 -12 30 -15 60 -10 120 4 65 2 79 -9 75
-7 -3 -16 -1 -20 5 -10 17 -33 13 -55 -9z m50 -126 c4 -71 2 -99 -8 -106 -18
-15 -25 -5 -33 55 -12 80 -10 142 3 155 22 22 33 -7 38 -104z"/>
<path d="M3351 2564 c-1 -7 -9 -14 -20 -17 -14 -3 -20 -18 -25 -61 -5 -36 -11
-54 -18 -50 -7 5 -9 -1 -5 -16 3 -12 2 -32 -3 -44 -9 -26 14 -91 30 -81 5 3
10 -1 10 -9 0 -21 35 -29 60 -14 50 32 78 195 39 237 -10 10 -15 21 -12 25 3
3 -2 8 -11 12 -9 3 -13 11 -9 18 4 6 0 6 -9 -2 -13 -10 -17 -10 -21 0 -3 8 -6
8 -6 2z m27 -106 c3 -55 -17 -128 -35 -128 -28 1 -32 17 -22 90 6 41 16 81 21
88 20 24 33 6 36 -50z"/>
<path d="M2835 2368 c4 -9 0 -22 -7 -29 -17 -19 -21 -36 -19 -89 2 -64 5 -82
18 -106 7 -12 10 -23 8 -25 -2 -3 11 -15 29 -27 24 -16 41 -21 60 -16 23 5 26
11 26 48 -1 22 -7 74 -13 113 -9 51 -10 76 -3 84 8 8 7 13 -2 16 -6 3 -10 8
-7 13 6 10 -42 23 -56 14 -5 -3 -17 0 -25 7 -12 10 -13 9 -9 -3z m55 -85 c0
-32 3 -82 7 -112 5 -44 3 -53 -8 -49 -22 7 -39 52 -46 122 -6 67 4 96 33 96
10 0 14 -15 14 -57z"/>
<path d="M374 2225 c-4 -8 -10 -12 -15 -9 -5 3 -9 0 -9 -6 0 -6 -7 -10 -14 -8
-17 3 -115 -108 -121 -137 -10 -52 -12 -105 -4 -105 5 0 9 7 9 15 0 18 12 19
27 4 6 -6 22 -9 35 -6 30 8 120 96 111 110 -4 6 -1 7 7 2 8 -5 20 1 32 16 11
13 17 18 13 12 -4 -8 -1 -11 9 -7 9 3 15 9 15 12 -2 16 14 52 22 52 5 0 -1 14
-13 31 -20 27 -27 30 -61 26 -21 -3 -35 -1 -31 4 3 5 3 9 -1 9 -3 0 -8 -7 -11
-15z m66 -43 c0 -21 -28 -49 -84 -82 -21 -13 -50 -34 -64 -47 -29 -27 -46 -26
-50 4 -4 26 96 119 141 132 48 14 57 13 57 -7z"/>
<path d="M2821 2055 c0 -18 28 -61 29 -44 0 8 -7 24 -15 35 -8 10 -14 15 -14
9z"/>
<path d="M2851 1963 c0 -12 -4 -30 -7 -40 -5 -14 -4 -15 5 -7 7 6 11 24 8 40
-3 21 -4 23 -6 7z"/>
<path d="M3336 1968 c3 -4 -1 -8 -8 -8 -7 0 -29 -8 -48 -18 -19 -11 -41 -17
-47 -15 -7 3 -13 0 -13 -6 0 -6 -7 -11 -15 -11 -17 0 -35 -30 -35 -58 0 -13
14 -26 43 -40 35 -17 51 -19 90 -11 52 9 107 35 107 49 0 5 8 11 18 15 15 4
19 16 20 63 1 36 -2 50 -7 38 -7 -18 -8 -18 -14 -3 -5 13 -17 17 -51 15 -25 0
-43 -5 -40 -10z m29 -58 c-15 -16 -31 -29 -34 -28 -3 1 -13 -1 -21 -5 -29 -11
-90 -16 -90 -7 0 5 10 15 23 21 33 18 141 57 146 53 3 -2 -8 -17 -24 -34z"/>
<path d="M212 1920 c0 -19 2 -27 5 -17 2 9 2 25 0 35 -3 9 -5 1 -5 -18z"/>
<path d="M2832 1870 c0 -14 2 -19 5 -12 2 6 2 18 0 25 -3 6 -5 1 -5 -13z"/>
<path d="M1000 1810 c13 -8 12 -10 -5 -11 -11 -1 -23 -1 -26 -1 -4 1 -9 -17
-13 -38 -6 -36 -14 -45 -39 -41 -81 14 -160 2 -163 -24 -1 -6 -4 -22 -8 -38
-3 -15 -3 -26 2 -25 5 2 26 -15 48 -38 48 -50 170 -109 148 -71 -6 9 -4 9 8
-1 13 -10 19 -8 39 12 13 14 24 29 24 33 1 4 7 19 14 32 7 13 15 44 16 68 2
25 6 47 9 50 3 4 6 18 6 33 0 27 -39 70 -63 70 -8 0 -7 -4 3 -10z m27 -71 c-7
-52 -20 -67 -42 -49 -26 22 -2 90 33 90 11 0 13 -9 9 -41z m-166 -69 c22 0 39
-5 39 -11 0 -14 -74 -4 -99 12 -14 9 -13 10 2 5 10 -3 36 -6 58 -6z m79 0 c0
-5 -4 -10 -10 -10 -5 0 -10 5 -10 10 0 6 5 10 10 10 6 0 10 -4 10 -10z m20
-82 c-17 -14 -26 -15 -36 -7 -19 16 -6 37 24 41 35 4 40 -11 12 -34z"/>
<path d="M2806 1788 c-7 -26 -8 -83 -2 -77 6 6 17 99 12 99 -2 0 -6 -10 -10
-22z"/>
<path d="M3469 1733 c9 -4 0 -12 -25 -24 -22 -10 -33 -18 -26 -19 10 0 8 -8
-6 -27 -11 -16 -21 -32 -22 -38 -5 -20 -20 -61 -30 -77 -6 -10 -6 -18 -1 -18
4 0 6 -11 3 -25 -2 -13 -1 -36 2 -50 6 -22 12 -25 50 -25 48 0 87 24 93 56 1
10 4 29 6 41 2 12 8 27 14 35 16 19 23 87 11 117 -12 33 -42 61 -65 60 -13 0
-14 -2 -4 -6z m21 -96 c0 -64 -31 -130 -73 -155 -24 -15 -29 -15 -37 -2 -6 10
-5 22 4 35 7 11 21 43 30 72 18 53 50 103 67 103 5 0 9 -24 9 -53z"/>
<path d="M2812 1680 c0 -14 2 -19 5 -12 2 6 2 18 0 25 -3 6 -5 1 -5 -13z"/>
<path d="M1230 1654 c0 -10 5 -26 10 -34 8 -11 9 -7 4 15 -8 37 -14 45 -14 19z"/>
<path d="M2925 1634 c-6 -1 -22 -5 -37 -8 -15 -3 -35 -14 -44 -24 -17 -16 -17
-16 -11 0 3 10 2 20 -3 23 -6 4 -10 -7 -10 -23 0 -17 -15 -50 -39 -83 -26 -36
-40 -68 -42 -96 -3 -23 -2 -40 0 -37 2 2 9 0 15 -5 24 -18 44 -18 82 0 21 10
35 19 29 19 -7 0 -7 3 0 8 33 23 71 92 85 150 9 35 -7 81 -25 76z m-1 -33 c4
-5 -11 -40 -33 -78 -52 -92 -131 -146 -131 -90 0 31 53 109 98 147 38 31 57
37 66 21z"/>
<path d="M1285 1569 c44 -39 87 -114 53 -93 -12 7 -69 12 -62 5 2 -2 -6 -15
-16 -29 -11 -13 -20 -31 -20 -39 0 -8 -4 -11 -10 -8 -6 4 -10 -5 -10 -19 0
-14 -3 -26 -7 -26 -5 0 -9 -14 -9 -32 -1 -17 -8 -36 -15 -42 -34 -26 -11 -128
32 -141 22 -7 49 4 49 21 0 8 3 13 8 13 23 -4 34 7 60 64 39 82 46 125 28 177
-8 23 -12 49 -9 56 8 21 -74 123 -100 124 -4 0 8 -14 28 -31z m35 -131 c-2
-37 -29 -110 -60 -161 -29 -48 -50 -70 -50 -52 0 16 60 179 74 200 17 27 36
33 36 13z"/>
<path d="M1389 1408 c31 -69 53 -110 58 -105 5 5 -64 147 -72 147 -2 0 4 -19
14 -42z"/>
<path d="M3095 1369 c4 -5 -1 -9 -9 -9 -9 0 -18 -11 -22 -25 -3 -14 -9 -25
-13 -25 -4 0 -12 -13 -18 -30 -6 -17 -7 -30 -2 -30 5 0 5 -7 -1 -17 -5 -10
-14 -30 -20 -45 -7 -21 -14 -26 -27 -21 -15 5 -16 4 -7 -8 6 -8 10 -25 8 -38
-3 -14 -1 -27 3 -30 5 -3 13 -15 19 -26 6 -11 21 -21 33 -23 23 -4 81 18 81
30 0 5 9 17 19 27 11 11 25 39 32 63 16 54 16 181 0 186 -6 2 -9 8 -5 13 3 5
-1 9 -8 10 -7 0 -25 2 -41 4 -15 2 -25 0 -22 -6z m41 -46 c-2 -10 -8 -33 -11
-52 -4 -19 -18 -53 -31 -76 -13 -24 -20 -46 -16 -50 4 -5 1 -5 -6 -1 -9 5 -15
1 -19 -12 -3 -12 -11 -18 -18 -16 -11 4 -9 14 6 47 10 23 19 49 19 58 0 27 51
119 67 119 9 0 13 -7 9 -17z"/>
<path d="M2650 1350 c-47 -26 -25 -26 25 0 22 11 33 20 25 20 -8 -1 -31 -9
-50 -20z"/>
<path d="M2561 1300 c-19 -11 -39 -25 -45 -32 -7 -8 -5 -8 6 1 10 7 25 11 33
7 9 -3 13 -2 10 4 -3 5 7 16 22 24 15 8 24 15 18 15 -5 0 -25 -9 -44 -19z"/>
<path d="M1456 1275 c4 -8 11 -15 16 -15 6 0 5 6 -2 15 -7 8 -14 15 -16 15 -2
0 -1 -7 2 -15z"/>
<path d="M2469 1239 l-24 -20 28 17 c15 9 27 18 27 20 0 8 -8 4 -31 -17z"/>
<path d="M2347 1166 c-73 -50 -80 -53 -127 -48 -39 4 -54 0 -76 -17 -19 -15
-41 -21 -77 -21 -51 0 -122 16 -145 33 -7 5 -15 7 -19 4 -15 -16 91 -47 158
-47 62 0 70 -2 85 -25 9 -14 23 -25 30 -25 8 0 14 -4 14 -9 0 -5 19 -16 42
-26 33 -13 58 -15 104 -10 75 8 94 20 95 60 0 40 -3 66 -8 61 -3 -2 -19 2 -38
9 -18 8 -35 12 -37 9 -3 -2 -10 2 -16 9 -9 11 -3 19 30 41 23 15 46 25 52 23
7 -3 12 4 12 14 0 11 0 19 -1 18 0 0 -35 -24 -78 -53z m-14 -82 c62 -7 76 -17
57 -39 -15 -18 -106 -20 -160 -5 -88 24 -92 66 -6 56 28 -3 77 -9 109 -12z"/>
<path d="M1531 1185 c15 -15 31 -26 37 -24 5 2 -7 14 -27 27 l-36 24 26 -27z"/>
<path d="M1595 1142 c12 -13 115 -23 115 -11 0 5 -17 9 -37 9 -21 0 -49 3 -63
6 -18 5 -22 4 -15 -4z"/>
<path d="M2132 983 c-12 -3 -20 -7 -18 -11 2 -4 -2 -13 -10 -20 -11 -10 -14
-10 -14 0 0 7 -8 -3 -18 -22 -10 -19 -23 -34 -31 -32 -7 1 -10 -1 -7 -6 3 -5
-6 -20 -21 -33 -14 -13 -23 -17 -18 -9 6 12 5 13 -5 3 -7 -6 -15 -33 -17 -60
-4 -39 -1 -51 15 -66 33 -30 91 -15 147 37 25 23 47 40 50 38 3 -3 5 2 5 11 0
9 4 17 9 17 5 0 12 14 16 30 4 17 11 30 16 30 15 0 5 44 -16 66 -22 25 -49 33
-83 27z m19 -126 c-20 -33 -61 -68 -95 -80 -21 -8 -56 0 -56 12 0 14 83 103
125 133 l40 30 3 -31 c2 -19 -5 -45 -17 -64z"/>
<path d="M1640 893 c-14 -7 -34 -13 -44 -13 -17 0 -70 -34 -103 -66 -15 -15
-17 -53 -3 -88 16 -44 79 -32 272 51 48 21 56 56 21 97 -20 24 -33 30 -71 31
-26 1 -58 -4 -72 -12z m124 -32 c14 -22 -8 -40 -57 -46 -29 -4 -70 -15 -92
-24 -69 -30 -95 -34 -102 -15 -8 21 42 66 90 82 41 13 154 15 161 3z"/>
<path d="M1916 568 c3 -4 0 -8 -5 -8 -20 0 -11 -60 13 -98 42 -67 89 -106 148
-125 30 -9 60 -17 66 -17 16 0 52 37 52 53 -1 17 -29 49 -73 82 -63 47 -117
103 -104 109 7 3 2 3 -10 0 -13 -3 -23 -1 -23 4 0 6 -15 10 -34 9 -19 0 -33
-5 -30 -9z m104 -64 c30 -26 65 -53 77 -61 13 -9 23 -25 23 -39 0 -21 -5 -24
-33 -24 -64 0 -185 121 -156 156 18 22 32 17 89 -32z"/>
<path d="M197 2483 c-13 -20 -18 -97 -8 -113 16 -24 22 -6 19 61 -2 35 -6 59
-11 52z"/>
<path d="M168 1634 c-5 -40 8 -94 26 -112 24 -24 26 -12 10 58 -18 75 -31 95
-36 54z"/>
<path d="M220 1471 c0 -12 6 -21 16 -21 9 0 14 7 12 17 -5 25 -28 28 -28 4z"/>
<path d="M305 1273 c4 -10 15 -45 26 -78 10 -33 25 -69 33 -80 15 -19 15 -18
15 15 -1 39 -14 79 -44 128 -20 34 -42 44 -30 15z"/>
<path d="M650 688 c0 -13 88 -98 102 -98 16 0 -25 61 -58 86 -35 27 -44 29
-44 12z"/>
<path d="M2395 440 c-3 -5 -2 -10 4 -10 5 0 13 5 16 10 3 6 2 10 -4 10 -5 0
-13 -4 -16 -10z"/>
<path d="M1790 163 c0 -14 67 -43 100 -43 77 0 79 27 3 33 -32 2 -68 8 -80 12
-13 4 -23 3 -23 -2z"/>
<path d="M1987 134 c-11 -11 3 -24 25 -24 17 0 18 2 8 15 -13 16 -23 19 -33 9z"/>
</g>
</svg>
